HIERARCHY
ROOT root
{
	OFFSET	0	13.1	24.9
	CHANNELS 6  Xposition Yposition Zposition Xrotation Yrotation Zrotation
	JOINT spine_1
	{
		OFFSET	0	9.99999	0
		CHANNELS 3  Xrotation Yrotation Zrotation
		JOINT spine_2
		{
			OFFSET	0	112	-10
			CHANNELS 3  Xrotation Yrotation Zrotation
			JOINT spine_3
			{
				OFFSET	0	206.5	19.3
				CHANNELS 3  Xrotation Yrotation Zrotation
				JOINT spine_4
				{
					OFFSET	0	110.4	14.6
					CHANNELS 3  Xrotation Yrotation Zrotation
					JOINT neck_1
					{
						OFFSET	0	71.8	-50.3
						CHANNELS 3  Xrotation Yrotation Zrotation
						JOINT neck_2
						{
							OFFSET	0	86.2	-25.8
							CHANNELS 3  Xrotation Yrotation Zrotation
							JOINT head_ee
							{
								OFFSET	0	179.8	-8.7
								CHANNELS 3  Xrotation Yrotation Zrotation
								End Site
								{
									OFFSET	1	0	0
								}
							}
						}
					}
					JOINT left_clavicle
					{
						OFFSET	-43.2	22.4	-70.8
						CHANNELS 3  Xrotation Yrotation Zrotation
						JOINT left_shoulder
						{
							OFFSET	-93.9	-5.79999	48.7
							CHANNELS 3  Xrotation Yrotation Zrotation
							JOINT left_elbow
							{
								OFFSET	-291.4	-30.8	15.2
								CHANNELS 3  Xrotation Yrotation Zrotation
								JOINT left_lowarm_twist
								{
									OFFSET	-110.7	-3.89999	13.6
									CHANNELS 3  Xrotation Yrotation Zrotation
									JOINT left_hand
									{
										OFFSET	-110.7	-3.89999	13.6
										CHANNELS 3  Xrotation Yrotation Zrotation
										JOINT left_ee
										{
											OFFSET	-80.8	-5.10001	12.1
											CHANNELS 3  Xrotation Yrotation Zrotation
											End Site
											{
												OFFSET	1	0	0
											}
										}
									}
								}
							}
						}
					}
					JOINT right_clavicle
					{
						OFFSET	43.2	22.4	-70.8
						CHANNELS 3  Xrotation Yrotation Zrotation
						JOINT right_shoulder
						{
							OFFSET	93.9	-5.79999	48.7
							CHANNELS 3  Xrotation Yrotation Zrotation
							JOINT right_elbow
							{
								OFFSET	291.4	-30.8	15.2
								CHANNELS 3  Xrotation Yrotation Zrotation
								JOINT right_lowarm_twist
								{
									OFFSET	110.7	-3.89999	13.6
									CHANNELS 3  Xrotation Yrotation Zrotation
									JOINT right_hand
									{
										OFFSET	110.7	-3.89999	13.6
										CHANNELS 3  Xrotation Yrotation Zrotation
										JOINT right_ee
										{
											OFFSET	80.8	-5.10001	12.1
											CHANNELS 3  Xrotation Yrotation Zrotation
											End Site
											{
												OFFSET	1	0	0
											}
										}
									}
								}
							}
						}
					}
				}
			}
		}
	}
	JOINT left_hip
	{
		OFFSET	-82.8	-127.5	0.300001
		CHANNELS 3  Xrotation Yrotation Zrotation
		JOINT left_knee
		{
			OFFSET	-28.2	-396.7	2.2
			CHANNELS 3  Xrotation Yrotation Zrotation
			JOINT left_ankle
			{
				OFFSET	-11.7	-411.3	35.4
				CHANNELS 3  Xrotation Yrotation Zrotation
				JOINT left_toes
				{
					OFFSET	0	-60	-88.6
					CHANNELS 3  Xrotation Yrotation Zrotation
					JOINT left_foot_ee
					{
						OFFSET	-22.5	-16.5	-42.2
						CHANNELS 3  Xrotation Yrotation Zrotation
						End Site
						{
							OFFSET	1	0	0
						}
					}
				}
			}
		}
	}
	JOINT right_hip
	{
		OFFSET	82.8	-127.5	0.300001
		CHANNELS 3  Xrotation Yrotation Zrotation
		JOINT right_knee
		{
			OFFSET	28.2	-396.7	2.2
			CHANNELS 3  Xrotation Yrotation Zrotation
			JOINT right_ankle
			{
				OFFSET	11.7	-411.3	35.4
				CHANNELS 3  Xrotation Yrotation Zrotation
				JOINT right_toes
				{
					OFFSET	0	-60	-88.6
					CHANNELS 3  Xrotation Yrotation Zrotation
					JOINT right_foot_ee
					{
						OFFSET	22.5	-16.5	-42.2
						CHANNELS 3  Xrotation Yrotation Zrotation
						End Site
						{
							OFFSET	1	0	0
						}
					}
				}
			}
		}
	}
}
MOTION
Frames: 8
Frame Time: 0.02
1186.1431979 733.779 -1766.5340289 -1.842567873 27.853347841 -1.74978782812 0.0227369 0.706452 3.42404 0.0291266 0.487273 3.46199 0.0622354 -0.24745 3.48732 0.0453976 0.30607 3.48267 -2.4852 13.7293 -8.56692 -1.58651 31.5362 -7.31291 -0.0 0.0 -0.0 -3.49739 22.816 -2.21821 -14.7141 -23.1689 63.598 1.01035 -26.5873 0.238725 -4.75873 -0.19178 0.577097 0.815993 11.1407 9.84242 -0.0 0.0 -0.0 10.8831 7.71029 -21.7726 -5.64758 35.4609 -63.4314 1.16889 30.0713 -0.313994 -29.582 1.91735 -3.21659 2.75077 -12.0717 -23.0695 0.0 0.0 0.0 16.9096 12.4466 -12.7525 -59.2777 -2.1225 8.44539 34.9228 18.2512 -4.49971 -18.8534 0.0 0.0 -0.0 0.0 -0.0 16.8936 18.3092 -3.56365 -26.216 -0.170304 -3.98454 23.9255 -3.94704 3.20905 -1.9432 0.0 0.0 0.0 0.0 0.0 
1134.23366829 753.735 -1785.79744681 -1.06552448349 31.8706520582 -1.43460803327 0.0353796 0.62653 3.17967 0.0409045 0.423036 3.21305 0.0677308 -0.257946 3.23048 0.0532596 0.255212 3.2307 -2.67135 12.6455 -7.79886 -1.95065 28.9929 -6.54337 -0.0 0.0 -0.0 -4.6607 23.2604 -3.74029 -18.6983 -23.9612 67.7714 0.928488 -24.6995 0.203292 -4.12937 -0.163671 0.501703 0.440319 16.6363 9.50494 -0.0 0.0 -0.0 11.1776 6.39836 -22.3977 -4.2293 35.3159 -61.3431 1.30593 32.8981 -0.385588 -31.824 2.12654 -3.4138 1.42149 -7.47056 -12.4462 0.0 0.0 0.0 26.3275 15.3507 -17.334 -59.0961 -2.10317 8.42511 35.1613 16.7232 -4.49867 -22.3043 0.0 0.0 -0.0 0.0 -0.0 13.4629 17.9449 -4.3161 -25.9949 -0.176517 -3.95118 28.6663 -6.8906 3.74403 -5.0143 0.0 0.0 0.0 0.0 0.0 
1116.22547705 749.852 -1790.64868838 -1.2005084633 34.4778917184 -0.185275247738 0.126185 0.505301 3.06424 0.131355 0.309386 3.09015 0.150654 -0.33906 3.08704 0.137389 0.152493 3.10184 -2.66701 12.1288 -7.44827 -2.01135 27.7876 -6.22743 -0.0 0.0 -0.0 -4.94788 23.282 -4.13583 -19.6862 -24.1232 68.826 0.883422 -23.6349 0.184841 -3.76717 -0.14787 0.458176 0.280762 19.0718 9.42272 -0.0 0.0 -0.0 11.2743 5.405 -22.5835 -3.22787 35.2113 -61.4243 1.38852 34.5195 -0.431423 -33.0788 2.24695 -3.52058 0.798667 -5.12932 -7.40817 0.0 0.0 0.0 28.6389 17.4494 -19.7172 -58.0024 -1.98819 8.3017 35.6032 15.2353 -4.52125 -23.1968 0.0 0.0 -0.0 0.0 -0.0 12.6655 17.5745 -5.34834 -26.077 -0.174227 -3.96356 31.1771 -7.60148 4.01413 -6.00185 0.0 0.0 0.0 0.0 0.0 
1086.37561481 739.231 -1790.2276103 -1.94478606806 38.3491334951 0.639898445739 0.354204 0.425056 2.99846 0.359176 0.233484 3.0194 0.373579 -0.387008 3.0036 0.361002 0.0919865 3.02701 -3.90257 11.1338 -8.19485 -3.35439 26.5775 -6.82093 -0.0 0.0 -0.0 -5.10394 23.2116 -4.37256 -20.3378 -24.2323 69.476 0.829118 -22.3288 0.163637 -2.91845 -0.111928 0.355804 0.366887 20.6775 10.5276 -0.0 0.0 -0.0 11.436 6.32367 -22.9639 -2.12681 35.4751 -60.4322 1.48755 36.3838 -0.488873 -33.7704 2.31432 -3.57831 0.341853 -1.78899 -3.02471 0.0 0.0 0.0 30.3998 18.8118 -21.496 -56.1747 -1.80139 8.0907 35.1838 13.5031 -4.45881 -23.8635 0.0 0.0 -0.0 0.0 -0.0 11.7083 18.7732 -6.42497 -26.1367 -0.172546 -3.97258 34.3755 -9.05457 4.34502 -6.53653 0.0 0.0 0.0 0.0 0.0 
1052.92845999 739.327 -1797.69814562 -0.974863084294 41.2268205213 0.9144139246 0.163022 0.4467 2.79645 0.167332 0.267922 2.81918 0.182631 -0.321769 2.81355 0.171607 0.126433 2.82905 -4.79977 10.203 -8.54685 -4.33842 25.1382 -7.09944 -0.0 0.0 -0.0 -5.4465 23.7529 -4.70522 -21.7632 -24.2608 69.9701 0.793144 -21.4498 0.150225 -2.32703 -0.0877818 0.284162 0.433032 21.7282 11.297 -0.0 0.0 -0.0 11.5772 7.24397 -23.2969 -1.88721 35.6824 -60.2342 1.61312 38.6252 -0.565339 -34.406 2.37684 -3.63064 -0.13981 1.45716 1.55227 0.0 0.0 0.0 33.8994 19.3271 -21.8755 -53.4456 -1.53531 7.76496 32.9592 12.4792 -4.22447 -24.7669 0.0 0.0 -0.0 0.0 -0.0 9.2231 22.146 -7.87941 -26.1439 -0.172344 -3.97366 36.6194 -9.98942 4.56764 -6.91079 0.0 0.0 0.0 0.0 0.0 
1002.60598657 721.667 -1810.45057056 -1.97113880338 44.3528651867 2.53447895665 1.08661 0.429358 2.29072 1.08949 0.282763 2.31339 1.10164 -0.165119 2.32474 1.09415 0.204001 2.32165 -2.73733 9.20037 -4.58102 -2.43971 20.2658 -3.52388 -0.0 0.0 -0.0 -6.45538 23.776 -6.10569 -24.9403 -24.1252 71.1386 0.826907 -22.2751 0.162798 -2.05967 -0.0771095 0.251695 0.71069 25.7985 14.2952 -0.0 0.0 -0.0 11.6743 10.0005 -23.5425 -2.9361 35.5427 -57.1547 1.74998 40.918 -0.652908 -35.1933 2.45507 -3.6945 -2.14779 5.94229 17.2658 0.0 0.0 0.0 32.4024 16.1107 -19.1505 -42.3776 -0.624916 6.32788 28.1429 14.9874 -3.72851 -25.3303 0.0 0.0 -0.0 0.0 -0.0 4.51628 34.6369 -9.81332 -16.7094 -0.320302 -2.53515 42.2072 -22.1273 5.28429 -6.42188 0.0 0.0 0.0 0.0 0.0 
969.561745204 723.361 -1808.90847336 -3.38181997001 45.716876543 3.89000950196 1.26893 0.454019 2.04431 1.2712 0.323043 2.06904 1.28338 -0.0721379 2.09285 1.27736 0.259222 2.078 -2.23092 9.33179 -1.57235 -2.04117 18.1245 -0.413698 -0.0 0.0 -0.0 -6.76598 23.8971 -6.50336 -25.788 -24.1416 72.1242 0.845299 -22.7207 0.169836 -1.75929 -0.0653002 0.21516 0.818809 27.8973 15.5662 -0.0 0.0 -0.0 11.9888 10.5189 -24.2512 -3.37486 35.3778 -56.712 1.78969 41.555 -0.679082 -35.7866 2.51462 -3.74192 -3.01936 7.33159 24.1981 0.0 0.0 0.0 32.6242 13.562 -18.104 -35.596 -0.210617 5.37197 25.2002 16.2353 -3.40129 -25.8299 0.0 0.0 -0.0 0.0 -0.0 2.58857 39.6804 -9.83909 -15.1847 -0.321905 -2.30122 45.0411 -26.2178 5.67119 -5.50623 0.0 0.0 0.0 0.0 0.0 
961.465268023 723.361 -1798.89417316 -3.47045842601 47.1256625454 4.01235673906 1.26893 0.454019 2.04431 1.2712 0.323043 2.06904 1.28338 -0.0721379 2.09285 1.27736 0.259222 2.078 -2.23092 9.33179 -1.57235 -2.04117 18.1245 -0.413698 -0.0 0.0 -0.0 -6.76598 23.8971 -6.50336 -25.788 -24.1416 72.1242 0.845299 -22.7207 0.169836 -1.75929 -0.0653002 0.21516 0.818809 27.8973 15.5662 -0.0 0.0 -0.0 11.9888 10.5189 -24.2512 -3.37486 35.3778 -56.712 1.78969 41.555 -0.679082 -35.7866 2.51462 -3.74192 -3.01936 7.33159 24.1981 0.0 0.0 0.0 32.6242 13.562 -18.104 -35.596 -0.210617 5.37197 25.2002 16.2353 -3.40129 -25.8299 0.0 0.0 -0.0 0.0 -0.0 2.58857 39.6804 -9.83909 -15.1847 -0.321905 -2.30122 45.0411 -26.2178 5.67119 -5.50623 0.0 0.0 0.0 0.0 0.0 
